<mxfile host="app.diagrams.net" modified="2024-01-11T08:06:33.309Z" agent="Mozilla/5.0 (Macintosh; Intel Mac OS X 10_15_7) AppleWebKit/537.36 (KHTML, like Gecko) Chrome/120.0.0.0 Safari/537.36" etag="uL1xSG_rJaV8pGUFOmrI" version="22.1.18" type="device">
  <diagram name="Page-1" id="jDR4aUTLp7qgYfam90Yn">
    <mxGraphModel dx="2568" dy="2117" grid="1" gridSize="10" guides="1" tooltips="1" connect="1" arrows="1" fold="1" page="1" pageScale="1" pageWidth="827" pageHeight="1169" math="0" shadow="0">
      <root>
        <mxCell id="0" />
        <mxCell id="1" parent="0" />
        <mxCell id="PwuSoHLJk2lvaVgNlacd-2" value="AWS Cloud" style="points=[[0,0],[0.25,0],[0.5,0],[0.75,0],[1,0],[1,0.25],[1,0.5],[1,0.75],[1,1],[0.75,1],[0.5,1],[0.25,1],[0,1],[0,0.75],[0,0.5],[0,0.25]];outlineConnect=0;gradientColor=none;html=1;whiteSpace=wrap;fontSize=12;fontStyle=0;container=1;pointerEvents=0;collapsible=0;recursiveResize=0;shape=mxgraph.aws4.group;grIcon=mxgraph.aws4.group_aws_cloud_alt;strokeColor=#232F3E;fillColor=none;verticalAlign=top;align=left;spacingLeft=30;fontColor=#232F3E;dashed=0;" vertex="1" parent="1">
          <mxGeometry x="-10" width="1220" height="1670" as="geometry" />
        </mxCell>
        <mxCell id="PwuSoHLJk2lvaVgNlacd-3" value="us-west-2 (Oregon)" style="points=[[0,0],[0.25,0],[0.5,0],[0.75,0],[1,0],[1,0.25],[1,0.5],[1,0.75],[1,1],[0.75,1],[0.5,1],[0.25,1],[0,1],[0,0.75],[0,0.5],[0,0.25]];outlineConnect=0;gradientColor=none;html=1;whiteSpace=wrap;fontSize=12;fontStyle=0;container=1;pointerEvents=0;collapsible=0;recursiveResize=0;shape=mxgraph.aws4.group;grIcon=mxgraph.aws4.group_region;strokeColor=#00A4A6;fillColor=none;verticalAlign=top;align=left;spacingLeft=30;fontColor=#147EBA;dashed=1;" vertex="1" parent="PwuSoHLJk2lvaVgNlacd-2">
          <mxGeometry x="30" y="40" width="1160" height="390" as="geometry" />
        </mxCell>
        <mxCell id="PwuSoHLJk2lvaVgNlacd-1" value="tgw-main (ASN:64512&lt;span style=&quot;background-color: initial;&quot;&gt;)&lt;/span&gt;" style="sketch=0;points=[[0,0,0],[0.25,0,0],[0.5,0,0],[0.75,0,0],[1,0,0],[0,1,0],[0.25,1,0],[0.5,1,0],[0.75,1,0],[1,1,0],[0,0.25,0],[0,0.5,0],[0,0.75,0],[1,0.25,0],[1,0.5,0],[1,0.75,0]];outlineConnect=0;fontColor=#232F3E;fillColor=#8C4FFF;strokeColor=#ffffff;dashed=0;verticalLabelPosition=bottom;verticalAlign=top;align=center;html=1;fontSize=12;fontStyle=0;aspect=fixed;shape=mxgraph.aws4.resourceIcon;resIcon=mxgraph.aws4.transit_gateway;" vertex="1" parent="PwuSoHLJk2lvaVgNlacd-3">
          <mxGeometry x="541" y="153" width="78" height="78" as="geometry" />
        </mxCell>
        <mxCell id="PwuSoHLJk2lvaVgNlacd-59" style="edgeStyle=none;rounded=0;orthogonalLoop=1;jettySize=auto;html=1;exitX=0.75;exitY=0.24;exitDx=0;exitDy=0;exitPerimeter=0;" edge="1" parent="PwuSoHLJk2lvaVgNlacd-3" source="PwuSoHLJk2lvaVgNlacd-12" target="PwuSoHLJk2lvaVgNlacd-45">
          <mxGeometry relative="1" as="geometry" />
        </mxCell>
        <mxCell id="PwuSoHLJk2lvaVgNlacd-12" value="MSVpcDev (10.53.0.0/16&lt;span style=&quot;background-color: initial;&quot;&gt;)&lt;/span&gt;" style="outlineConnect=0;dashed=0;verticalLabelPosition=bottom;verticalAlign=top;align=center;html=1;shape=mxgraph.aws3.virtual_private_cloud;fillColor=#F58534;gradientColor=none;" vertex="1" parent="PwuSoHLJk2lvaVgNlacd-3">
          <mxGeometry x="50" y="210" width="79.5" height="54" as="geometry" />
        </mxCell>
        <mxCell id="PwuSoHLJk2lvaVgNlacd-55" style="edgeStyle=none;rounded=0;orthogonalLoop=1;jettySize=auto;html=1;" edge="1" parent="PwuSoHLJk2lvaVgNlacd-3" source="PwuSoHLJk2lvaVgNlacd-13" target="PwuSoHLJk2lvaVgNlacd-45">
          <mxGeometry relative="1" as="geometry" />
        </mxCell>
        <mxCell id="PwuSoHLJk2lvaVgNlacd-13" value="WorkspaceVpcDev&amp;nbsp;10.52.0.0/16" style="outlineConnect=0;dashed=0;verticalLabelPosition=bottom;verticalAlign=top;align=center;html=1;shape=mxgraph.aws3.virtual_private_cloud;fillColor=#F58534;gradientColor=none;" vertex="1" parent="PwuSoHLJk2lvaVgNlacd-3">
          <mxGeometry x="50" y="120" width="79.5" height="54" as="geometry" />
        </mxCell>
        <mxCell id="PwuSoHLJk2lvaVgNlacd-54" style="edgeStyle=none;rounded=0;orthogonalLoop=1;jettySize=auto;html=1;exitX=0.95;exitY=0.5;exitDx=0;exitDy=0;exitPerimeter=0;" edge="1" parent="PwuSoHLJk2lvaVgNlacd-3" source="PwuSoHLJk2lvaVgNlacd-14" target="PwuSoHLJk2lvaVgNlacd-45">
          <mxGeometry relative="1" as="geometry" />
        </mxCell>
        <mxCell id="PwuSoHLJk2lvaVgNlacd-14" value="LabVpcDev (10.51.0.0/16&lt;span style=&quot;background-color: initial;&quot;&gt;)&lt;/span&gt;" style="outlineConnect=0;dashed=0;verticalLabelPosition=bottom;verticalAlign=top;align=center;html=1;shape=mxgraph.aws3.virtual_private_cloud;fillColor=#F58534;gradientColor=none;" vertex="1" parent="PwuSoHLJk2lvaVgNlacd-3">
          <mxGeometry x="50" y="40" width="79.5" height="54" as="geometry" />
        </mxCell>
        <mxCell id="PwuSoHLJk2lvaVgNlacd-58" style="edgeStyle=none;rounded=0;orthogonalLoop=1;jettySize=auto;html=1;exitX=0.75;exitY=0.24;exitDx=0;exitDy=0;exitPerimeter=0;" edge="1" parent="PwuSoHLJk2lvaVgNlacd-3" source="PwuSoHLJk2lvaVgNlacd-15" target="PwuSoHLJk2lvaVgNlacd-45">
          <mxGeometry relative="1" as="geometry" />
        </mxCell>
        <mxCell id="PwuSoHLJk2lvaVgNlacd-15" value="OmniSpinVpcDev (10.54.0.0/16&lt;span style=&quot;background-color: initial;&quot;&gt;)&lt;/span&gt;" style="outlineConnect=0;dashed=0;verticalLabelPosition=bottom;verticalAlign=top;align=center;html=1;shape=mxgraph.aws3.virtual_private_cloud;fillColor=#F58534;gradientColor=none;" vertex="1" parent="PwuSoHLJk2lvaVgNlacd-3">
          <mxGeometry x="50" y="300" width="79.5" height="54" as="geometry" />
        </mxCell>
        <mxCell id="PwuSoHLJk2lvaVgNlacd-64" style="edgeStyle=none;rounded=0;orthogonalLoop=1;jettySize=auto;html=1;exitX=0.055;exitY=0.5;exitDx=0;exitDy=0;exitPerimeter=0;" edge="1" parent="PwuSoHLJk2lvaVgNlacd-3" source="PwuSoHLJk2lvaVgNlacd-16" target="PwuSoHLJk2lvaVgNlacd-61">
          <mxGeometry relative="1" as="geometry" />
        </mxCell>
        <mxCell id="PwuSoHLJk2lvaVgNlacd-16" value="MSVpcProd (10.2.0.0/16&lt;span style=&quot;background-color: initial;&quot;&gt;)&lt;/span&gt;" style="outlineConnect=0;dashed=0;verticalLabelPosition=bottom;verticalAlign=top;align=center;html=1;shape=mxgraph.aws3.virtual_private_cloud;fillColor=#F58534;gradientColor=none;" vertex="1" parent="PwuSoHLJk2lvaVgNlacd-3">
          <mxGeometry x="1020" y="190" width="79.5" height="54" as="geometry" />
        </mxCell>
        <mxCell id="PwuSoHLJk2lvaVgNlacd-63" style="edgeStyle=none;rounded=0;orthogonalLoop=1;jettySize=auto;html=1;exitX=0.055;exitY=0.5;exitDx=0;exitDy=0;exitPerimeter=0;" edge="1" parent="PwuSoHLJk2lvaVgNlacd-3" source="PwuSoHLJk2lvaVgNlacd-17" target="PwuSoHLJk2lvaVgNlacd-61">
          <mxGeometry relative="1" as="geometry" />
        </mxCell>
        <mxCell id="PwuSoHLJk2lvaVgNlacd-17" value="WorkspaceVpcProd (10.1.0.0/16&lt;span style=&quot;background-color: initial;&quot;&gt;)&lt;/span&gt;" style="outlineConnect=0;dashed=0;verticalLabelPosition=bottom;verticalAlign=top;align=center;html=1;shape=mxgraph.aws3.virtual_private_cloud;fillColor=#F58534;gradientColor=none;" vertex="1" parent="PwuSoHLJk2lvaVgNlacd-3">
          <mxGeometry x="1020" y="99" width="79.5" height="54" as="geometry" />
        </mxCell>
        <mxCell id="PwuSoHLJk2lvaVgNlacd-62" style="edgeStyle=none;rounded=0;orthogonalLoop=1;jettySize=auto;html=1;exitX=0.055;exitY=0.5;exitDx=0;exitDy=0;exitPerimeter=0;" edge="1" parent="PwuSoHLJk2lvaVgNlacd-3" source="PwuSoHLJk2lvaVgNlacd-18" target="PwuSoHLJk2lvaVgNlacd-61">
          <mxGeometry relative="1" as="geometry" />
        </mxCell>
        <mxCell id="PwuSoHLJk2lvaVgNlacd-18" value="LabVpcProd (10.0.0.0/16&lt;span style=&quot;background-color: initial;&quot;&gt;)&lt;/span&gt;" style="outlineConnect=0;dashed=0;verticalLabelPosition=bottom;verticalAlign=top;align=center;html=1;shape=mxgraph.aws3.virtual_private_cloud;fillColor=#F58534;gradientColor=none;" vertex="1" parent="PwuSoHLJk2lvaVgNlacd-3">
          <mxGeometry x="1020" y="9" width="79.5" height="54" as="geometry" />
        </mxCell>
        <mxCell id="PwuSoHLJk2lvaVgNlacd-65" style="edgeStyle=none;rounded=0;orthogonalLoop=1;jettySize=auto;html=1;exitX=0.055;exitY=0.5;exitDx=0;exitDy=0;exitPerimeter=0;" edge="1" parent="PwuSoHLJk2lvaVgNlacd-3" source="PwuSoHLJk2lvaVgNlacd-19" target="PwuSoHLJk2lvaVgNlacd-61">
          <mxGeometry relative="1" as="geometry" />
        </mxCell>
        <mxCell id="PwuSoHLJk2lvaVgNlacd-19" value="OmniSpinVpcProd (10.3.0.0/16&lt;span style=&quot;background-color: initial;&quot;&gt;)&lt;/span&gt;" style="outlineConnect=0;dashed=0;verticalLabelPosition=bottom;verticalAlign=top;align=center;html=1;shape=mxgraph.aws3.virtual_private_cloud;fillColor=#F58534;gradientColor=none;" vertex="1" parent="PwuSoHLJk2lvaVgNlacd-3">
          <mxGeometry x="1020" y="290" width="79.5" height="54" as="geometry" />
        </mxCell>
        <mxCell id="PwuSoHLJk2lvaVgNlacd-67" style="edgeStyle=none;rounded=0;orthogonalLoop=1;jettySize=auto;html=1;exitX=0.95;exitY=0.5;exitDx=0;exitDy=0;exitPerimeter=0;" edge="1" parent="PwuSoHLJk2lvaVgNlacd-3" source="PwuSoHLJk2lvaVgNlacd-28" target="PwuSoHLJk2lvaVgNlacd-66">
          <mxGeometry relative="1" as="geometry" />
        </mxCell>
        <mxCell id="PwuSoHLJk2lvaVgNlacd-28" value="VpnVpc (10.72.0.0/16&lt;span style=&quot;background-color: initial;&quot;&gt;)&lt;/span&gt;" style="outlineConnect=0;dashed=0;verticalLabelPosition=bottom;verticalAlign=top;align=center;html=1;shape=mxgraph.aws3.virtual_private_cloud;fillColor=#F58534;gradientColor=none;" vertex="1" parent="PwuSoHLJk2lvaVgNlacd-3">
          <mxGeometry x="251.5" y="290" width="79.5" height="54" as="geometry" />
        </mxCell>
        <mxCell id="PwuSoHLJk2lvaVgNlacd-45" value="Vpc-Tgw-Attachments (Dev)" style="sketch=0;outlineConnect=0;fontColor=#232F3E;gradientColor=none;fillColor=#8C4FFF;strokeColor=none;dashed=0;verticalLabelPosition=bottom;verticalAlign=top;align=center;html=1;fontSize=12;fontStyle=0;aspect=fixed;pointerEvents=1;shape=mxgraph.aws4.transit_gateway_attachment;" vertex="1" parent="PwuSoHLJk2lvaVgNlacd-3">
          <mxGeometry x="260" y="160" width="71" height="71" as="geometry" />
        </mxCell>
        <mxCell id="PwuSoHLJk2lvaVgNlacd-61" value="Vpc-Tgw-Attachments (Prod)" style="sketch=0;outlineConnect=0;fontColor=#232F3E;gradientColor=none;fillColor=#8C4FFF;strokeColor=none;dashed=0;verticalLabelPosition=bottom;verticalAlign=top;align=center;html=1;fontSize=12;fontStyle=0;aspect=fixed;pointerEvents=1;shape=mxgraph.aws4.transit_gateway_attachment;" vertex="1" parent="PwuSoHLJk2lvaVgNlacd-3">
          <mxGeometry x="830" y="159.5" width="71" height="71" as="geometry" />
        </mxCell>
        <mxCell id="PwuSoHLJk2lvaVgNlacd-66" value="Vpc-Tgw-Attachments (Common)" style="sketch=0;outlineConnect=0;fontColor=#232F3E;gradientColor=none;fillColor=#8C4FFF;strokeColor=none;dashed=0;verticalLabelPosition=middle;verticalAlign=middle;align=left;html=1;fontSize=12;fontStyle=0;aspect=fixed;pointerEvents=1;shape=mxgraph.aws4.transit_gateway_attachment;labelPosition=right;" vertex="1" parent="PwuSoHLJk2lvaVgNlacd-3">
          <mxGeometry x="541" y="281.5" width="71" height="71" as="geometry" />
        </mxCell>
        <mxCell id="PwuSoHLJk2lvaVgNlacd-70" style="edgeStyle=orthogonalEdgeStyle;curved=1;rounded=0;orthogonalLoop=1;jettySize=auto;html=1;entryX=0.25;entryY=0;entryDx=0;entryDy=0;entryPerimeter=0;" edge="1" parent="PwuSoHLJk2lvaVgNlacd-3" source="PwuSoHLJk2lvaVgNlacd-45" target="PwuSoHLJk2lvaVgNlacd-1">
          <mxGeometry relative="1" as="geometry">
            <Array as="points">
              <mxPoint x="410" y="196" />
              <mxPoint x="410" y="110" />
              <mxPoint x="561" y="110" />
            </Array>
          </mxGeometry>
        </mxCell>
        <mxCell id="PwuSoHLJk2lvaVgNlacd-71" style="edgeStyle=orthogonalEdgeStyle;curved=1;rounded=0;orthogonalLoop=1;jettySize=auto;html=1;entryX=0.75;entryY=0;entryDx=0;entryDy=0;entryPerimeter=0;" edge="1" parent="PwuSoHLJk2lvaVgNlacd-3" source="PwuSoHLJk2lvaVgNlacd-61" target="PwuSoHLJk2lvaVgNlacd-1">
          <mxGeometry relative="1" as="geometry">
            <Array as="points">
              <mxPoint x="740" y="195" />
              <mxPoint x="740" y="110" />
              <mxPoint x="600" y="110" />
            </Array>
          </mxGeometry>
        </mxCell>
        <mxCell id="PwuSoHLJk2lvaVgNlacd-87" style="edgeStyle=orthogonalEdgeStyle;curved=1;rounded=0;orthogonalLoop=1;jettySize=auto;html=1;entryX=0;entryY=0.75;entryDx=0;entryDy=0;entryPerimeter=0;" edge="1" parent="PwuSoHLJk2lvaVgNlacd-3" source="PwuSoHLJk2lvaVgNlacd-66" target="PwuSoHLJk2lvaVgNlacd-1">
          <mxGeometry relative="1" as="geometry">
            <Array as="points">
              <mxPoint x="576" y="260" />
              <mxPoint x="500" y="260" />
              <mxPoint x="500" y="212" />
            </Array>
          </mxGeometry>
        </mxCell>
        <mxCell id="PwuSoHLJk2lvaVgNlacd-88" value="Vpn-Tgw-Attachment" style="sketch=0;outlineConnect=0;fontColor=#232F3E;gradientColor=none;fillColor=#8C4FFF;strokeColor=none;dashed=0;verticalLabelPosition=middle;verticalAlign=middle;align=right;html=1;fontSize=12;fontStyle=0;aspect=fixed;pointerEvents=1;shape=mxgraph.aws4.transit_gateway_attachment;labelPosition=left;" vertex="1" parent="PwuSoHLJk2lvaVgNlacd-3">
          <mxGeometry x="544.5" y="9" width="71" height="71" as="geometry" />
        </mxCell>
        <mxCell id="PwuSoHLJk2lvaVgNlacd-97" style="edgeStyle=orthogonalEdgeStyle;curved=1;rounded=0;orthogonalLoop=1;jettySize=auto;html=1;entryX=0.5;entryY=0;entryDx=0;entryDy=0;entryPerimeter=0;" edge="1" parent="PwuSoHLJk2lvaVgNlacd-3" source="PwuSoHLJk2lvaVgNlacd-88" target="PwuSoHLJk2lvaVgNlacd-1">
          <mxGeometry relative="1" as="geometry" />
        </mxCell>
        <mxCell id="PwuSoHLJk2lvaVgNlacd-4" value="ap-southeast-1 (Singapore)" style="points=[[0,0],[0.25,0],[0.5,0],[0.75,0],[1,0],[1,0.25],[1,0.5],[1,0.75],[1,1],[0.75,1],[0.5,1],[0.25,1],[0,1],[0,0.75],[0,0.5],[0,0.25]];outlineConnect=0;gradientColor=none;html=1;whiteSpace=wrap;fontSize=12;fontStyle=0;container=1;pointerEvents=0;collapsible=0;recursiveResize=0;shape=mxgraph.aws4.group;grIcon=mxgraph.aws4.group_region;strokeColor=#00A4A6;fillColor=none;verticalAlign=top;align=left;spacingLeft=30;fontColor=#147EBA;dashed=1;" vertex="1" parent="PwuSoHLJk2lvaVgNlacd-2">
          <mxGeometry x="30" y="450" width="1160" height="380" as="geometry" />
        </mxCell>
        <mxCell id="PwuSoHLJk2lvaVgNlacd-7" value="sg-tgw (ASN:64514&lt;span style=&quot;background-color: initial;&quot;&gt;)&lt;/span&gt;" style="sketch=0;points=[[0,0,0],[0.25,0,0],[0.5,0,0],[0.75,0,0],[1,0,0],[0,1,0],[0.25,1,0],[0.5,1,0],[0.75,1,0],[1,1,0],[0,0.25,0],[0,0.5,0],[0,0.75,0],[1,0.25,0],[1,0.5,0],[1,0.75,0]];outlineConnect=0;fontColor=#232F3E;fillColor=#8C4FFF;strokeColor=#ffffff;dashed=0;verticalLabelPosition=bottom;verticalAlign=top;align=center;html=1;fontSize=12;fontStyle=0;aspect=fixed;shape=mxgraph.aws4.resourceIcon;resIcon=mxgraph.aws4.transit_gateway;" vertex="1" parent="PwuSoHLJk2lvaVgNlacd-4">
          <mxGeometry x="541" y="130" width="78" height="78" as="geometry" />
        </mxCell>
        <mxCell id="PwuSoHLJk2lvaVgNlacd-73" style="rounded=0;orthogonalLoop=1;jettySize=auto;html=1;exitX=0.95;exitY=0.5;exitDx=0;exitDy=0;exitPerimeter=0;" edge="1" parent="PwuSoHLJk2lvaVgNlacd-4" source="PwuSoHLJk2lvaVgNlacd-22" target="PwuSoHLJk2lvaVgNlacd-72">
          <mxGeometry relative="1" as="geometry" />
        </mxCell>
        <mxCell id="PwuSoHLJk2lvaVgNlacd-22" value="SGLabVpcDev (10.55.0.0/16&lt;span style=&quot;background-color: initial;&quot;&gt;)&lt;/span&gt;" style="outlineConnect=0;dashed=0;verticalLabelPosition=bottom;verticalAlign=top;align=center;html=1;shape=mxgraph.aws3.virtual_private_cloud;fillColor=#F58534;gradientColor=none;" vertex="1" parent="PwuSoHLJk2lvaVgNlacd-4">
          <mxGeometry x="60" y="97" width="79.5" height="54" as="geometry" />
        </mxCell>
        <mxCell id="PwuSoHLJk2lvaVgNlacd-75" value="" style="rounded=0;orthogonalLoop=1;jettySize=auto;html=1;exitX=0.055;exitY=0.5;exitDx=0;exitDy=0;exitPerimeter=0;" edge="1" parent="PwuSoHLJk2lvaVgNlacd-4" source="PwuSoHLJk2lvaVgNlacd-26" target="PwuSoHLJk2lvaVgNlacd-74">
          <mxGeometry relative="1" as="geometry" />
        </mxCell>
        <mxCell id="PwuSoHLJk2lvaVgNlacd-26" value="SGLabVpcProd (10.4.0.0/16&lt;span style=&quot;background-color: initial;&quot;&gt;)&lt;/span&gt;" style="outlineConnect=0;dashed=0;verticalLabelPosition=bottom;verticalAlign=top;align=center;html=1;shape=mxgraph.aws3.virtual_private_cloud;fillColor=#F58534;gradientColor=none;" vertex="1" parent="PwuSoHLJk2lvaVgNlacd-4">
          <mxGeometry x="1010" y="90" width="79.5" height="54" as="geometry" />
        </mxCell>
        <mxCell id="PwuSoHLJk2lvaVgNlacd-72" value="Vpc-Tgw-Attachments" style="sketch=0;outlineConnect=0;fontColor=#232F3E;gradientColor=none;fillColor=#8C4FFF;strokeColor=none;dashed=0;verticalLabelPosition=bottom;verticalAlign=top;align=center;html=1;fontSize=12;fontStyle=0;aspect=fixed;pointerEvents=1;shape=mxgraph.aws4.transit_gateway_attachment;" vertex="1" parent="PwuSoHLJk2lvaVgNlacd-4">
          <mxGeometry x="250" y="88.5" width="71" height="71" as="geometry" />
        </mxCell>
        <mxCell id="PwuSoHLJk2lvaVgNlacd-74" value="Vpc-Tgw-Attachments" style="sketch=0;outlineConnect=0;fontColor=#232F3E;gradientColor=none;fillColor=#8C4FFF;strokeColor=none;dashed=0;verticalLabelPosition=bottom;verticalAlign=top;align=center;html=1;fontSize=12;fontStyle=0;aspect=fixed;pointerEvents=1;shape=mxgraph.aws4.transit_gateway_attachment;" vertex="1" parent="PwuSoHLJk2lvaVgNlacd-4">
          <mxGeometry x="840" y="81.5" width="71" height="71" as="geometry" />
        </mxCell>
        <mxCell id="PwuSoHLJk2lvaVgNlacd-76" style="edgeStyle=orthogonalEdgeStyle;curved=1;rounded=0;orthogonalLoop=1;jettySize=auto;html=1;entryX=1;entryY=0.5;entryDx=0;entryDy=0;entryPerimeter=0;" edge="1" parent="PwuSoHLJk2lvaVgNlacd-4" source="PwuSoHLJk2lvaVgNlacd-74" target="PwuSoHLJk2lvaVgNlacd-7">
          <mxGeometry relative="1" as="geometry" />
        </mxCell>
        <mxCell id="PwuSoHLJk2lvaVgNlacd-77" style="edgeStyle=orthogonalEdgeStyle;curved=1;rounded=0;orthogonalLoop=1;jettySize=auto;html=1;entryX=0;entryY=0.75;entryDx=0;entryDy=0;entryPerimeter=0;" edge="1" parent="PwuSoHLJk2lvaVgNlacd-4" source="PwuSoHLJk2lvaVgNlacd-72" target="PwuSoHLJk2lvaVgNlacd-7">
          <mxGeometry relative="1" as="geometry" />
        </mxCell>
        <mxCell id="PwuSoHLJk2lvaVgNlacd-5" value="eu-west-1 (Ireland)" style="points=[[0,0],[0.25,0],[0.5,0],[0.75,0],[1,0],[1,0.25],[1,0.5],[1,0.75],[1,1],[0.75,1],[0.5,1],[0.25,1],[0,1],[0,0.75],[0,0.5],[0,0.25]];outlineConnect=0;gradientColor=none;html=1;whiteSpace=wrap;fontSize=12;fontStyle=0;container=1;pointerEvents=0;collapsible=0;recursiveResize=0;shape=mxgraph.aws4.group;grIcon=mxgraph.aws4.group_region;strokeColor=#00A4A6;fillColor=none;verticalAlign=top;align=left;spacingLeft=30;fontColor=#147EBA;dashed=1;" vertex="1" parent="PwuSoHLJk2lvaVgNlacd-2">
          <mxGeometry x="30" y="850" width="1160" height="380" as="geometry" />
        </mxCell>
        <mxCell id="PwuSoHLJk2lvaVgNlacd-10" value="ir-tgw (ASN:64515&lt;span style=&quot;background-color: initial;&quot;&gt;)&lt;/span&gt;" style="sketch=0;points=[[0,0,0],[0.25,0,0],[0.5,0,0],[0.75,0,0],[1,0,0],[0,1,0],[0.25,1,0],[0.5,1,0],[0.75,1,0],[1,1,0],[0,0.25,0],[0,0.5,0],[0,0.75,0],[1,0.25,0],[1,0.5,0],[1,0.75,0]];outlineConnect=0;fontColor=#232F3E;fillColor=#8C4FFF;strokeColor=#ffffff;dashed=0;verticalLabelPosition=bottom;verticalAlign=top;align=center;html=1;fontSize=12;fontStyle=0;aspect=fixed;shape=mxgraph.aws4.resourceIcon;resIcon=mxgraph.aws4.transit_gateway;" vertex="1" parent="PwuSoHLJk2lvaVgNlacd-5">
          <mxGeometry x="541" y="120" width="78" height="78" as="geometry" />
        </mxCell>
        <mxCell id="PwuSoHLJk2lvaVgNlacd-79" style="edgeStyle=orthogonalEdgeStyle;curved=1;rounded=0;orthogonalLoop=1;jettySize=auto;html=1;exitX=0.95;exitY=0.5;exitDx=0;exitDy=0;exitPerimeter=0;" edge="1" parent="PwuSoHLJk2lvaVgNlacd-5" source="PwuSoHLJk2lvaVgNlacd-23" target="PwuSoHLJk2lvaVgNlacd-78">
          <mxGeometry relative="1" as="geometry" />
        </mxCell>
        <mxCell id="PwuSoHLJk2lvaVgNlacd-23" value="IRLabVpcDev (10.56.0.0/16&lt;span style=&quot;background-color: initial;&quot;&gt;)&lt;/span&gt;" style="outlineConnect=0;dashed=0;verticalLabelPosition=bottom;verticalAlign=top;align=center;html=1;shape=mxgraph.aws3.virtual_private_cloud;fillColor=#F58534;gradientColor=none;" vertex="1" parent="PwuSoHLJk2lvaVgNlacd-5">
          <mxGeometry x="60" y="100" width="79.5" height="54" as="geometry" />
        </mxCell>
        <mxCell id="PwuSoHLJk2lvaVgNlacd-82" style="rounded=0;orthogonalLoop=1;jettySize=auto;html=1;exitX=0.055;exitY=0.5;exitDx=0;exitDy=0;exitPerimeter=0;" edge="1" parent="PwuSoHLJk2lvaVgNlacd-5" source="PwuSoHLJk2lvaVgNlacd-27" target="PwuSoHLJk2lvaVgNlacd-81">
          <mxGeometry relative="1" as="geometry" />
        </mxCell>
        <mxCell id="PwuSoHLJk2lvaVgNlacd-27" value="IRLabVpcProd (10.5.0.0/16&lt;span style=&quot;background-color: initial;&quot;&gt;)&lt;/span&gt;" style="outlineConnect=0;dashed=0;verticalLabelPosition=bottom;verticalAlign=top;align=center;html=1;shape=mxgraph.aws3.virtual_private_cloud;fillColor=#F58534;gradientColor=none;" vertex="1" parent="PwuSoHLJk2lvaVgNlacd-5">
          <mxGeometry x="1020" y="91.5" width="79.5" height="54" as="geometry" />
        </mxCell>
        <mxCell id="PwuSoHLJk2lvaVgNlacd-78" value="Vpc-Tgw-Attachments" style="sketch=0;outlineConnect=0;fontColor=#232F3E;gradientColor=none;fillColor=#8C4FFF;strokeColor=none;dashed=0;verticalLabelPosition=bottom;verticalAlign=top;align=center;html=1;fontSize=12;fontStyle=0;aspect=fixed;pointerEvents=1;shape=mxgraph.aws4.transit_gateway_attachment;" vertex="1" parent="PwuSoHLJk2lvaVgNlacd-5">
          <mxGeometry x="240" y="91.5" width="71" height="71" as="geometry" />
        </mxCell>
        <mxCell id="PwuSoHLJk2lvaVgNlacd-80" style="edgeStyle=orthogonalEdgeStyle;curved=1;rounded=0;orthogonalLoop=1;jettySize=auto;html=1;entryX=0;entryY=0.75;entryDx=0;entryDy=0;entryPerimeter=0;" edge="1" parent="PwuSoHLJk2lvaVgNlacd-5" source="PwuSoHLJk2lvaVgNlacd-78" target="PwuSoHLJk2lvaVgNlacd-10">
          <mxGeometry relative="1" as="geometry" />
        </mxCell>
        <mxCell id="PwuSoHLJk2lvaVgNlacd-83" style="edgeStyle=orthogonalEdgeStyle;curved=1;rounded=0;orthogonalLoop=1;jettySize=auto;html=1;" edge="1" parent="PwuSoHLJk2lvaVgNlacd-5" source="PwuSoHLJk2lvaVgNlacd-81" target="PwuSoHLJk2lvaVgNlacd-10">
          <mxGeometry relative="1" as="geometry" />
        </mxCell>
        <mxCell id="PwuSoHLJk2lvaVgNlacd-81" value="Vpc-Tgw-Attachments" style="sketch=0;outlineConnect=0;fontColor=#232F3E;gradientColor=none;fillColor=#8C4FFF;strokeColor=none;dashed=0;verticalLabelPosition=bottom;verticalAlign=top;align=center;html=1;fontSize=12;fontStyle=0;aspect=fixed;pointerEvents=1;shape=mxgraph.aws4.transit_gateway_attachment;" vertex="1" parent="PwuSoHLJk2lvaVgNlacd-5">
          <mxGeometry x="850" y="83" width="71" height="71" as="geometry" />
        </mxCell>
        <mxCell id="PwuSoHLJk2lvaVgNlacd-6" value="us-east-2 (Ohio)" style="points=[[0,0],[0.25,0],[0.5,0],[0.75,0],[1,0],[1,0.25],[1,0.5],[1,0.75],[1,1],[0.75,1],[0.5,1],[0.25,1],[0,1],[0,0.75],[0,0.5],[0,0.25]];outlineConnect=0;gradientColor=none;html=1;whiteSpace=wrap;fontSize=12;fontStyle=0;container=1;pointerEvents=0;collapsible=0;recursiveResize=0;shape=mxgraph.aws4.group;grIcon=mxgraph.aws4.group_region;strokeColor=#00A4A6;fillColor=none;verticalAlign=top;align=left;spacingLeft=30;fontColor=#147EBA;dashed=1;" vertex="1" parent="PwuSoHLJk2lvaVgNlacd-2">
          <mxGeometry x="30" y="1250" width="1160" height="380" as="geometry" />
        </mxCell>
        <mxCell id="PwuSoHLJk2lvaVgNlacd-11" value="tgw-vcl (ASN:64513&lt;span style=&quot;background-color: initial;&quot;&gt;)&lt;/span&gt;" style="sketch=0;points=[[0,0,0],[0.25,0,0],[0.5,0,0],[0.75,0,0],[1,0,0],[0,1,0],[0.25,1,0],[0.5,1,0],[0.75,1,0],[1,1,0],[0,0.25,0],[0,0.5,0],[0,0.75,0],[1,0.25,0],[1,0.5,0],[1,0.75,0]];outlineConnect=0;fontColor=#232F3E;fillColor=#8C4FFF;strokeColor=#ffffff;dashed=0;verticalLabelPosition=bottom;verticalAlign=top;align=center;html=1;fontSize=12;fontStyle=0;aspect=fixed;shape=mxgraph.aws4.resourceIcon;resIcon=mxgraph.aws4.transit_gateway;" vertex="1" parent="PwuSoHLJk2lvaVgNlacd-6">
          <mxGeometry x="541" y="130" width="78" height="78" as="geometry" />
        </mxCell>
        <mxCell id="PwuSoHLJk2lvaVgNlacd-103" style="edgeStyle=orthogonalEdgeStyle;curved=1;rounded=0;orthogonalLoop=1;jettySize=auto;html=1;exitX=0.95;exitY=0.5;exitDx=0;exitDy=0;exitPerimeter=0;" edge="1" parent="PwuSoHLJk2lvaVgNlacd-6" target="PwuSoHLJk2lvaVgNlacd-102">
          <mxGeometry relative="1" as="geometry">
            <mxPoint x="299.50499999999965" y="169" as="sourcePoint" />
          </mxGeometry>
        </mxCell>
        <mxCell id="PwuSoHLJk2lvaVgNlacd-29" value="VCLVpc (10.71.0.0/16&lt;span style=&quot;background-color: initial;&quot;&gt;)&lt;/span&gt;" style="outlineConnect=0;dashed=0;verticalLabelPosition=bottom;verticalAlign=top;align=center;html=1;shape=mxgraph.aws3.virtual_private_cloud;fillColor=#F58534;gradientColor=none;" vertex="1" parent="PwuSoHLJk2lvaVgNlacd-6">
          <mxGeometry x="220" y="138.5" width="79.5" height="54" as="geometry" />
        </mxCell>
        <mxCell id="PwuSoHLJk2lvaVgNlacd-102" value="Vpc-Tgw-Attachments" style="sketch=0;outlineConnect=0;fontColor=#232F3E;gradientColor=none;fillColor=#8C4FFF;strokeColor=none;dashed=0;verticalLabelPosition=bottom;verticalAlign=top;align=center;html=1;fontSize=12;fontStyle=0;aspect=fixed;pointerEvents=1;shape=mxgraph.aws4.transit_gateway_attachment;" vertex="1" parent="PwuSoHLJk2lvaVgNlacd-6">
          <mxGeometry x="397.98" y="133.5" width="71" height="71" as="geometry" />
        </mxCell>
        <mxCell id="PwuSoHLJk2lvaVgNlacd-104" style="edgeStyle=orthogonalEdgeStyle;curved=1;rounded=0;orthogonalLoop=1;jettySize=auto;html=1;entryX=0;entryY=0.5;entryDx=0;entryDy=0;entryPerimeter=0;" edge="1" parent="PwuSoHLJk2lvaVgNlacd-6" source="PwuSoHLJk2lvaVgNlacd-102" target="PwuSoHLJk2lvaVgNlacd-11">
          <mxGeometry relative="1" as="geometry" />
        </mxCell>
        <mxCell id="PwuSoHLJk2lvaVgNlacd-105" value="VCL Endpoint&lt;br&gt;" style="sketch=0;outlineConnect=0;fontColor=#232F3E;gradientColor=none;fillColor=#8C4FFF;strokeColor=none;dashed=0;verticalLabelPosition=bottom;verticalAlign=top;align=center;html=1;fontSize=12;fontStyle=0;aspect=fixed;pointerEvents=1;shape=mxgraph.aws4.endpoints;" vertex="1" parent="PwuSoHLJk2lvaVgNlacd-6">
          <mxGeometry x="80" y="80" width="60" height="60" as="geometry" />
        </mxCell>
        <mxCell id="PwuSoHLJk2lvaVgNlacd-106" style="edgeStyle=orthogonalEdgeStyle;curved=1;rounded=0;orthogonalLoop=1;jettySize=auto;html=1;entryX=0.18;entryY=0.19;entryDx=0;entryDy=0;entryPerimeter=0;" edge="1" parent="PwuSoHLJk2lvaVgNlacd-6" source="PwuSoHLJk2lvaVgNlacd-105" target="PwuSoHLJk2lvaVgNlacd-29">
          <mxGeometry relative="1" as="geometry" />
        </mxCell>
        <mxCell id="PwuSoHLJk2lvaVgNlacd-34" style="edgeStyle=orthogonalEdgeStyle;rounded=0;orthogonalLoop=1;jettySize=auto;html=1;exitX=0;exitY=0.5;exitDx=0;exitDy=0;exitPerimeter=0;entryX=0;entryY=0.5;entryDx=0;entryDy=0;entryPerimeter=0;curved=1;" edge="1" parent="PwuSoHLJk2lvaVgNlacd-2" source="PwuSoHLJk2lvaVgNlacd-7" target="PwuSoHLJk2lvaVgNlacd-1">
          <mxGeometry relative="1" as="geometry">
            <Array as="points">
              <mxPoint x="470" y="619" />
              <mxPoint x="470" y="232" />
            </Array>
          </mxGeometry>
        </mxCell>
        <mxCell id="PwuSoHLJk2lvaVgNlacd-36" value="Peering Initiator" style="edgeLabel;html=1;align=center;verticalAlign=middle;resizable=0;points=[];" vertex="1" connectable="0" parent="PwuSoHLJk2lvaVgNlacd-34">
          <mxGeometry x="-0.3538" y="-12" relative="1" as="geometry">
            <mxPoint as="offset" />
          </mxGeometry>
        </mxCell>
        <mxCell id="PwuSoHLJk2lvaVgNlacd-38" style="edgeStyle=orthogonalEdgeStyle;rounded=0;orthogonalLoop=1;jettySize=auto;html=1;exitX=0;exitY=0.5;exitDx=0;exitDy=0;exitPerimeter=0;entryX=0;entryY=0.25;entryDx=0;entryDy=0;entryPerimeter=0;curved=1;" edge="1" parent="PwuSoHLJk2lvaVgNlacd-2" source="PwuSoHLJk2lvaVgNlacd-10" target="PwuSoHLJk2lvaVgNlacd-1">
          <mxGeometry relative="1" as="geometry">
            <Array as="points">
              <mxPoint x="400" y="1009" />
              <mxPoint x="400" y="212" />
            </Array>
          </mxGeometry>
        </mxCell>
        <mxCell id="PwuSoHLJk2lvaVgNlacd-40" value="Peering Initiator" style="edgeLabel;html=1;align=center;verticalAlign=middle;resizable=0;points=[];" vertex="1" connectable="0" parent="PwuSoHLJk2lvaVgNlacd-38">
          <mxGeometry x="-0.8277" y="-48" relative="1" as="geometry">
            <mxPoint as="offset" />
          </mxGeometry>
        </mxCell>
        <mxCell id="PwuSoHLJk2lvaVgNlacd-41" style="edgeStyle=orthogonalEdgeStyle;rounded=0;orthogonalLoop=1;jettySize=auto;html=1;exitX=1;exitY=0.5;exitDx=0;exitDy=0;exitPerimeter=0;entryX=1;entryY=0.5;entryDx=0;entryDy=0;entryPerimeter=0;curved=1;" edge="1" parent="PwuSoHLJk2lvaVgNlacd-2" source="PwuSoHLJk2lvaVgNlacd-11" target="PwuSoHLJk2lvaVgNlacd-1">
          <mxGeometry relative="1" as="geometry">
            <Array as="points">
              <mxPoint x="860" y="1419" />
              <mxPoint x="860" y="232" />
            </Array>
          </mxGeometry>
        </mxCell>
        <mxCell id="PwuSoHLJk2lvaVgNlacd-43" value="Peering Initiator" style="edgeLabel;html=1;align=center;verticalAlign=middle;resizable=0;points=[];" vertex="1" connectable="0" parent="PwuSoHLJk2lvaVgNlacd-41">
          <mxGeometry x="-0.6035" y="77" relative="1" as="geometry">
            <mxPoint as="offset" />
          </mxGeometry>
        </mxCell>
        <mxCell id="PwuSoHLJk2lvaVgNlacd-96" style="edgeStyle=orthogonalEdgeStyle;curved=1;rounded=0;orthogonalLoop=1;jettySize=auto;html=1;endArrow=none;endFill=0;" edge="1" parent="1" source="PwuSoHLJk2lvaVgNlacd-85" target="PwuSoHLJk2lvaVgNlacd-88">
          <mxGeometry relative="1" as="geometry" />
        </mxCell>
        <mxCell id="PwuSoHLJk2lvaVgNlacd-85" value="AWS Site-to-Site VPN&lt;br&gt;(1 Tunnel Only)" style="sketch=0;points=[[0,0,0],[0.25,0,0],[0.5,0,0],[0.75,0,0],[1,0,0],[0,1,0],[0.25,1,0],[0.5,1,0],[0.75,1,0],[1,1,0],[0,0.25,0],[0,0.5,0],[0,0.75,0],[1,0.25,0],[1,0.5,0],[1,0.75,0]];outlineConnect=0;fontColor=#232F3E;fillColor=#8C4FFF;strokeColor=#ffffff;dashed=0;verticalLabelPosition=middle;verticalAlign=middle;align=right;html=1;fontSize=12;fontStyle=0;aspect=fixed;shape=mxgraph.aws4.resourceIcon;resIcon=mxgraph.aws4.site_to_site_vpn;labelPosition=left;" vertex="1" parent="1">
          <mxGeometry x="561" y="-140" width="78" height="78" as="geometry" />
        </mxCell>
        <mxCell id="PwuSoHLJk2lvaVgNlacd-99" style="edgeStyle=orthogonalEdgeStyle;curved=1;rounded=0;orthogonalLoop=1;jettySize=auto;html=1;endArrow=none;endFill=0;" edge="1" parent="1" source="PwuSoHLJk2lvaVgNlacd-91" target="PwuSoHLJk2lvaVgNlacd-95">
          <mxGeometry relative="1" as="geometry" />
        </mxCell>
        <mxCell id="PwuSoHLJk2lvaVgNlacd-91" value="Internet" style="outlineConnect=0;dashed=0;verticalLabelPosition=middle;verticalAlign=middle;align=right;html=1;shape=mxgraph.aws3.internet_2;fillColor=#D2D3D3;gradientColor=none;labelPosition=left;" vertex="1" parent="1">
          <mxGeometry x="559.5" y="-280" width="79.5" height="54" as="geometry" />
        </mxCell>
        <mxCell id="PwuSoHLJk2lvaVgNlacd-94" value="Azure Cloud" style="verticalLabelPosition=middle;html=1;verticalAlign=middle;align=right;strokeColor=none;fillColor=#00BEF2;shape=mxgraph.azure.cloud;labelPosition=left;" vertex="1" parent="1">
          <mxGeometry x="535.5" y="-560" width="129" height="80" as="geometry" />
        </mxCell>
        <mxCell id="PwuSoHLJk2lvaVgNlacd-95" value="Customer Gateway &lt;br&gt;(BGP-ASN:645144&lt;span style=&quot;background-color: initial;&quot;&gt;)&lt;/span&gt;" style="sketch=0;outlineConnect=0;fontColor=#232F3E;gradientColor=none;fillColor=#8C4FFF;strokeColor=none;dashed=0;verticalLabelPosition=middle;verticalAlign=middle;align=right;html=1;fontSize=12;fontStyle=0;aspect=fixed;pointerEvents=1;shape=mxgraph.aws4.customer_gateway;labelPosition=left;" vertex="1" parent="1">
          <mxGeometry x="565" y="-400" width="70" height="70" as="geometry" />
        </mxCell>
        <mxCell id="PwuSoHLJk2lvaVgNlacd-98" style="edgeStyle=orthogonalEdgeStyle;curved=1;rounded=0;orthogonalLoop=1;jettySize=auto;html=1;entryX=0.5;entryY=1;entryDx=0;entryDy=0;entryPerimeter=0;endArrow=none;endFill=0;" edge="1" parent="1" source="PwuSoHLJk2lvaVgNlacd-85" target="PwuSoHLJk2lvaVgNlacd-91">
          <mxGeometry relative="1" as="geometry" />
        </mxCell>
        <mxCell id="PwuSoHLJk2lvaVgNlacd-101" value="IPSec VPN Connection" style="edgeLabel;html=1;align=center;verticalAlign=middle;resizable=0;points=[];" vertex="1" connectable="0" parent="PwuSoHLJk2lvaVgNlacd-98">
          <mxGeometry x="-0.0231" y="-1" relative="1" as="geometry">
            <mxPoint y="-1" as="offset" />
          </mxGeometry>
        </mxCell>
        <mxCell id="PwuSoHLJk2lvaVgNlacd-100" style="edgeStyle=orthogonalEdgeStyle;curved=1;rounded=0;orthogonalLoop=1;jettySize=auto;html=1;entryX=0.5;entryY=1;entryDx=0;entryDy=0;entryPerimeter=0;endArrow=none;endFill=0;" edge="1" parent="1" source="PwuSoHLJk2lvaVgNlacd-95" target="PwuSoHLJk2lvaVgNlacd-94">
          <mxGeometry relative="1" as="geometry" />
        </mxCell>
      </root>
    </mxGraphModel>
  </diagram>
</mxfile>
